<mxfile host="app.diagrams.net" agent="Mozilla/5.0 (Windows NT 10.0; Win64; x64) AppleWebKit/537.36 (KHTML, like Gecko) Chrome/131.0.0.0 Safari/537.36" version="25.0.1">
  <diagram id="C5RBs43oDa-KdzZeNtuy" name="Page-1">
    <mxGraphModel dx="1050" dy="574" grid="1" gridSize="10" guides="1" tooltips="1" connect="1" arrows="1" fold="1" page="1" pageScale="1" pageWidth="3300" pageHeight="4681" math="0" shadow="0">
      <root>
        <mxCell id="WIyWlLk6GJQsqaUBKTNV-0" />
        <mxCell id="WIyWlLk6GJQsqaUBKTNV-1" parent="WIyWlLk6GJQsqaUBKTNV-0" />
        <mxCell id="3bDkZ6XuROaeYBq_H3r6-7" value="&lt;h3&gt;Doctor&lt;/h3&gt;" style="swimlane;fontStyle=0;childLayout=stackLayout;horizontal=1;startSize=30;horizontalStack=0;resizeParent=1;resizeParentMax=0;resizeLast=0;collapsible=1;marginBottom=0;whiteSpace=wrap;html=1;" vertex="1" parent="WIyWlLk6GJQsqaUBKTNV-1">
          <mxGeometry x="1290" y="610" width="210" height="300" as="geometry" />
        </mxCell>
        <mxCell id="3bDkZ6XuROaeYBq_H3r6-10" value="&lt;div style=&quot;background-color: rgb(255, 255, 254); font-family: Consolas, &amp;quot;Courier New&amp;quot;, monospace; font-size: 14px; line-height: 19px; white-space: pre;&quot;&gt;&lt;div&gt;&amp;nbsp;&lt;span style=&quot;font-weight: bold;&quot;&gt;-&lt;/span&gt;DoctorID&lt;/div&gt;&lt;div&gt; &lt;span style=&quot;font-weight: bold;&quot;&gt;-&lt;/span&gt;FullName&lt;/div&gt;&lt;div&gt; &lt;span style=&quot;font-weight: bold;&quot;&gt;-&lt;/span&gt;Specialty&lt;/div&gt;&lt;div&gt; &lt;span style=&quot;font-weight: bold;&quot;&gt;-&lt;/span&gt;ContactInfo&lt;/div&gt;&lt;div&gt;&amp;nbsp;&lt;span style=&quot;font-weight: bold;&quot;&gt;-&lt;/span&gt;LicenseNumber&lt;/div&gt;&lt;div&gt;&amp;nbsp;&lt;span style=&quot;font-weight: bold;&quot;&gt;-&lt;/span&gt;ConsultationFee&lt;/div&gt;&lt;div&gt;&amp;nbsp;&lt;span style=&quot;font-weight: bold;&quot;&gt;-&lt;/span&gt;DepartmentID&lt;/div&gt;&lt;div&gt;&amp;nbsp;&lt;span style=&quot;font-weight: bold;&quot;&gt;-&lt;/span&gt;Role&lt;/div&gt;&lt;hr&gt;&lt;div&gt;&amp;nbsp;&lt;span style=&quot;font-weight: bold;&quot;&gt;+&lt;/span&gt;prescribeMedication&lt;span style=&quot;font-weight: bold;&quot;&gt;()&lt;/span&gt;&lt;/div&gt;&lt;div&gt;&amp;nbsp;&lt;span style=&quot;font-weight: bold;&quot;&gt;+&lt;/span&gt;viewMedicalHistory&lt;span style=&quot;font-weight: bold;&quot;&gt;()&lt;/span&gt;&lt;/div&gt;&lt;div&gt;&amp;nbsp;&lt;span style=&quot;font-weight: bold;&quot;&gt;+&lt;/span&gt;checkDrugInteractions&lt;span style=&quot;font-weight: bold;&quot;&gt;()&lt;/span&gt;&lt;/div&gt;&lt;/div&gt;" style="text;strokeColor=none;fillColor=none;align=left;verticalAlign=top;spacingLeft=4;spacingRight=4;overflow=hidden;points=[[0,0.5],[1,0.5]];portConstraint=eastwest;rotatable=0;whiteSpace=wrap;html=1;" vertex="1" parent="3bDkZ6XuROaeYBq_H3r6-7">
          <mxGeometry y="30" width="210" height="270" as="geometry" />
        </mxCell>
        <mxCell id="3bDkZ6XuROaeYBq_H3r6-19" value="&lt;h3&gt;Patient&lt;/h3&gt;" style="swimlane;fontStyle=0;childLayout=stackLayout;horizontal=1;startSize=30;horizontalStack=0;resizeParent=1;resizeParentMax=0;resizeLast=0;collapsible=1;marginBottom=0;whiteSpace=wrap;html=1;" vertex="1" parent="WIyWlLk6GJQsqaUBKTNV-1">
          <mxGeometry x="890" y="670" width="150" height="340" as="geometry" />
        </mxCell>
        <mxCell id="3bDkZ6XuROaeYBq_H3r6-20" value="&lt;div style=&quot;background-color: rgb(255, 255, 254); font-family: Consolas, &amp;quot;Courier New&amp;quot;, monospace; font-size: 14px; line-height: 19px; white-space: pre;&quot;&gt;&lt;div style=&quot;line-height: 19px;&quot;&gt;&lt;div&gt;&lt;span style=&quot;font-weight: bold;&quot;&gt;-&lt;/span&gt;PatientID&lt;/div&gt;&lt;div&gt;&lt;span style=&quot;font-weight: bold;&quot;&gt;-&lt;/span&gt;FullName&lt;/div&gt;&lt;div&gt;&lt;span style=&quot;font-weight: bold;&quot;&gt;-&lt;/span&gt;DateOfBirth&lt;/div&gt;&lt;div&gt;&lt;span style=&quot;font-weight: bold;&quot;&gt;-&lt;/span&gt;Gender&lt;/div&gt;&lt;div&gt;&lt;span style=&quot;font-weight: bold;&quot;&gt;-&lt;/span&gt;BloodType&lt;/div&gt;&lt;div&gt;&lt;span style=&quot;font-weight: bold;&quot;&gt;-&lt;/span&gt;EmergencyContact&lt;/div&gt;&lt;div&gt;&lt;span style=&quot;font-weight: bold;&quot;&gt;-&lt;/span&gt;AllergyInfo&lt;/div&gt;&lt;div&gt;&lt;span style=&quot;font-weight: bold;&quot;&gt;-&lt;/span&gt;FamilyHistory&lt;/div&gt;&lt;div&gt;&lt;span style=&quot;font-weight: bold;&quot;&gt;-&lt;/span&gt;MedicalHistoryID&lt;/div&gt;&lt;div&gt;&lt;span style=&quot;font-weight: bold;&quot;&gt;-&lt;/span&gt;InsuranceDetails&lt;/div&gt;&lt;div&gt;&lt;span style=&quot;font-weight: bold;&quot;&gt;-&lt;/span&gt;ContactInfo&lt;/div&gt;&lt;div&gt;&lt;span style=&quot;font-weight: bold;&quot;&gt;-&lt;/span&gt;Role&lt;/div&gt;&lt;hr&gt;&lt;div&gt;&lt;span style=&quot;font-weight: bold;&quot;&gt;+&lt;/span&gt;getProfile&lt;span style=&quot;font-weight: bold;&quot;&gt;()&lt;/span&gt;&lt;/div&gt;&lt;div&gt;&lt;span style=&quot;font-weight: bold;&quot;&gt;+&lt;/span&gt;updateProfile&lt;span style=&quot;font-weight: bold;&quot;&gt;()&lt;/span&gt;&lt;/div&gt;&lt;div&gt;&lt;span style=&quot;font-weight: bold;&quot;&gt;+&lt;/span&gt;getAllergyInfo&lt;span style=&quot;font-weight: bold;&quot;&gt;()&lt;/span&gt;&lt;/div&gt;&lt;/div&gt;&lt;/div&gt;" style="text;strokeColor=none;fillColor=none;align=left;verticalAlign=top;spacingLeft=4;spacingRight=4;overflow=hidden;points=[[0,0.5],[1,0.5]];portConstraint=eastwest;rotatable=0;whiteSpace=wrap;html=1;" vertex="1" parent="3bDkZ6XuROaeYBq_H3r6-19">
          <mxGeometry y="30" width="150" height="310" as="geometry" />
        </mxCell>
        <mxCell id="3bDkZ6XuROaeYBq_H3r6-21" value="&lt;h3&gt;Appointment&amp;nbsp;&lt;/h3&gt;" style="swimlane;fontStyle=0;childLayout=stackLayout;horizontal=1;startSize=30;horizontalStack=0;resizeParent=1;resizeParentMax=0;resizeLast=0;collapsible=1;marginBottom=0;whiteSpace=wrap;html=1;" vertex="1" parent="WIyWlLk6GJQsqaUBKTNV-1">
          <mxGeometry x="1030" y="1110" width="170" height="310" as="geometry" />
        </mxCell>
        <mxCell id="3bDkZ6XuROaeYBq_H3r6-22" value="&lt;div style=&quot;background-color: rgb(255, 255, 254); font-family: Consolas, &amp;quot;Courier New&amp;quot;, monospace; font-size: 14px; line-height: 19px; white-space: pre;&quot;&gt;&lt;div style=&quot;line-height: 19px;&quot;&gt;&lt;div style=&quot;line-height: 19px;&quot;&gt;&lt;div&gt;&lt;span style=&quot;font-weight: bold;&quot;&gt;-&lt;/span&gt;AppointmentID&lt;/div&gt;&lt;div&gt;&lt;span style=&quot;font-weight: bold;&quot;&gt;-&lt;/span&gt;PatientID&lt;/div&gt;&lt;div&gt;&lt;span style=&quot;font-weight: bold;&quot;&gt;-&lt;/span&gt;DoctorID&lt;/div&gt;&lt;div&gt;&lt;span style=&quot;font-weight: bold;&quot;&gt;-&lt;/span&gt;AppointmentType&lt;/div&gt;&lt;div&gt;&lt;span style=&quot;font-weight: bold;&quot;&gt;-&lt;/span&gt;AppointmentDate&lt;/div&gt;&lt;div&gt;&lt;span style=&quot;font-weight: bold;&quot;&gt;-&lt;/span&gt;AppointmentTime&lt;/div&gt;&lt;div&gt;&lt;span style=&quot;font-weight: bold;&quot;&gt;-&lt;/span&gt;Symptoms&lt;/div&gt;&lt;div&gt;&lt;span style=&quot;font-weight: bold;&quot;&gt;-&lt;/span&gt;Diagnosis&lt;/div&gt;&lt;div&gt;&lt;span style=&quot;font-weight: bold;&quot;&gt;-&lt;/span&gt;AppointmentStatus&lt;/div&gt;&lt;div&gt;&lt;span style=&quot;font-weight: bold;&quot;&gt;-&lt;/span&gt;PaymentStatus&lt;/div&gt;&lt;div&gt;&lt;span style=&quot;font-weight: bold;&quot;&gt;-&lt;/span&gt;CreatedBy&lt;/div&gt;&lt;hr&gt;&lt;div&gt;&lt;span style=&quot;font-weight: bold;&quot;&gt;+&lt;/span&gt;createAppointment&lt;span style=&quot;font-weight: bold;&quot;&gt;()&lt;/span&gt;&lt;/div&gt;&lt;div&gt;&lt;span style=&quot;font-weight: bold;&quot;&gt;+&lt;/span&gt;cancelAppointment&lt;span style=&quot;font-weight: bold;&quot;&gt;()&lt;/span&gt;&lt;/div&gt;&lt;/div&gt;&lt;/div&gt;&lt;/div&gt;" style="text;strokeColor=none;fillColor=none;align=left;verticalAlign=top;spacingLeft=4;spacingRight=4;overflow=hidden;points=[[0,0.5],[1,0.5]];portConstraint=eastwest;rotatable=0;whiteSpace=wrap;html=1;" vertex="1" parent="3bDkZ6XuROaeYBq_H3r6-21">
          <mxGeometry y="30" width="170" height="280" as="geometry" />
        </mxCell>
        <mxCell id="3bDkZ6XuROaeYBq_H3r6-23" value="&lt;h3&gt;&lt;b&gt;Prescription&lt;/b&gt;&lt;/h3&gt;" style="swimlane;fontStyle=0;childLayout=stackLayout;horizontal=1;startSize=30;horizontalStack=0;resizeParent=1;resizeParentMax=0;resizeLast=0;collapsible=1;marginBottom=0;whiteSpace=wrap;html=1;" vertex="1" parent="WIyWlLk6GJQsqaUBKTNV-1">
          <mxGeometry x="1150" y="1510" width="200" height="320" as="geometry" />
        </mxCell>
        <mxCell id="3bDkZ6XuROaeYBq_H3r6-24" value="&lt;div style=&quot;background-color: rgb(255, 255, 254); font-family: Consolas, &amp;quot;Courier New&amp;quot;, monospace; font-size: 14px; line-height: 19px; white-space: pre;&quot;&gt;&lt;div style=&quot;line-height: 19px;&quot;&gt;&lt;div style=&quot;line-height: 19px;&quot;&gt;&lt;div&gt;&lt;span style=&quot;font-weight: bold;&quot;&gt;-&lt;/span&gt;PrescriptionID&lt;/div&gt;&lt;div&gt;&lt;span style=&quot;font-weight: bold;&quot;&gt;-&lt;/span&gt;AppointmentID&lt;/div&gt;&lt;div&gt;&lt;span style=&quot;font-weight: bold;&quot;&gt;-&lt;/span&gt;PatientID&lt;/div&gt;&lt;div&gt;&lt;span style=&quot;font-weight: bold;&quot;&gt;-&lt;/span&gt;DoctorID&lt;/div&gt;&lt;div&gt;&lt;span style=&quot;font-weight: bold;&quot;&gt;-&lt;/span&gt;MedicineName&lt;/div&gt;&lt;div&gt;&lt;span style=&quot;font-weight: bold;&quot;&gt;-&lt;/span&gt;Dosage&lt;/div&gt;&lt;div&gt;&lt;span style=&quot;font-weight: bold;&quot;&gt;-&lt;/span&gt;Frequency&lt;/div&gt;&lt;div&gt;&lt;span style=&quot;font-weight: bold;&quot;&gt;-&lt;/span&gt;Duration&lt;/div&gt;&lt;div&gt;&lt;span style=&quot;font-weight: bold;&quot;&gt;-&lt;/span&gt;Warnings&lt;/div&gt;&lt;div&gt;&lt;span style=&quot;font-weight: bold;&quot;&gt;-&lt;/span&gt;ConflictingDrugs&lt;/div&gt;&lt;div&gt;&lt;span style=&quot;font-weight: bold;&quot;&gt;-&lt;/span&gt;RefillsAllowed&lt;/div&gt;&lt;div&gt;&lt;span style=&quot;font-weight: bold;&quot;&gt;-&lt;/span&gt;ExpirationDate&lt;/div&gt;&lt;hr&gt;&lt;div&gt;&lt;span style=&quot;font-weight: bold;&quot;&gt;+&lt;/span&gt;generatePrescription&lt;span style=&quot;font-weight: bold;&quot;&gt;()&lt;/span&gt;&lt;/div&gt;&lt;div&gt;&lt;span style=&quot;font-weight: bold;&quot;&gt;+&lt;/span&gt;validateMedication&lt;span style=&quot;font-weight: bold;&quot;&gt;()&lt;/span&gt;&lt;/div&gt;&lt;/div&gt;&lt;/div&gt;&lt;/div&gt;" style="text;strokeColor=none;fillColor=none;align=left;verticalAlign=top;spacingLeft=4;spacingRight=4;overflow=hidden;points=[[0,0.5],[1,0.5]];portConstraint=eastwest;rotatable=0;whiteSpace=wrap;html=1;" vertex="1" parent="3bDkZ6XuROaeYBq_H3r6-23">
          <mxGeometry y="30" width="200" height="290" as="geometry" />
        </mxCell>
        <mxCell id="3bDkZ6XuROaeYBq_H3r6-27" value="&lt;h3&gt;Lab Technician&lt;/h3&gt;" style="swimlane;fontStyle=0;childLayout=stackLayout;horizontal=1;startSize=30;horizontalStack=0;resizeParent=1;resizeParentMax=0;resizeLast=0;collapsible=1;marginBottom=0;whiteSpace=wrap;html=1;" vertex="1" parent="WIyWlLk6GJQsqaUBKTNV-1">
          <mxGeometry x="490" y="1270" width="160" height="210" as="geometry" />
        </mxCell>
        <mxCell id="3bDkZ6XuROaeYBq_H3r6-28" value="&lt;div style=&quot;background-color: rgb(255, 255, 254); font-family: Consolas, &amp;quot;Courier New&amp;quot;, monospace; font-size: 14px; line-height: 19px; white-space: pre;&quot;&gt;&lt;div style=&quot;line-height: 19px;&quot;&gt;&lt;div style=&quot;line-height: 19px;&quot;&gt;&lt;div style=&quot;line-height: 19px;&quot;&gt;&lt;div&gt;&lt;span style=&quot;font-weight: bold;&quot;&gt;-&lt;/span&gt;TechnicianID&lt;/div&gt;&lt;div&gt;&lt;span style=&quot;font-weight: bold;&quot;&gt;-&lt;/span&gt;FullName&lt;/div&gt;&lt;div&gt;&lt;span style=&quot;font-weight: bold;&quot;&gt;-&lt;/span&gt;ContactInfo&lt;/div&gt;&lt;div&gt;&lt;span style=&quot;font-weight: bold;&quot;&gt;-&lt;/span&gt;Specialization&lt;/div&gt;&lt;div&gt;&lt;span style=&quot;font-weight: bold;&quot;&gt;-&lt;/span&gt;LabName&lt;/div&gt;&lt;div&gt;&lt;span style=&quot;font-weight: bold;&quot;&gt;-&lt;/span&gt;YearsOfExperience&lt;/div&gt;&lt;hr&gt;&lt;div&gt;&lt;span style=&quot;font-weight: bold;&quot;&gt;+&lt;/span&gt;handleTest&lt;span style=&quot;font-weight: bold;&quot;&gt;()&lt;/span&gt;&lt;/div&gt;&lt;div&gt;&lt;span style=&quot;font-weight: bold;&quot;&gt;+&lt;/span&gt;updateTestStatus&lt;span style=&quot;font-weight: bold;&quot;&gt;()&lt;/span&gt;&lt;/div&gt;&lt;/div&gt;&lt;/div&gt;&lt;/div&gt;&lt;/div&gt;" style="text;strokeColor=none;fillColor=none;align=left;verticalAlign=top;spacingLeft=4;spacingRight=4;overflow=hidden;points=[[0,0.5],[1,0.5]];portConstraint=eastwest;rotatable=0;whiteSpace=wrap;html=1;" vertex="1" parent="3bDkZ6XuROaeYBq_H3r6-27">
          <mxGeometry y="30" width="160" height="180" as="geometry" />
        </mxCell>
        <mxCell id="3bDkZ6XuROaeYBq_H3r6-29" value="&lt;h3&gt;&lt;b&gt;Test Report&lt;/b&gt;&lt;/h3&gt;" style="swimlane;fontStyle=0;childLayout=stackLayout;horizontal=1;startSize=30;horizontalStack=0;resizeParent=1;resizeParentMax=0;resizeLast=0;collapsible=1;marginBottom=0;whiteSpace=wrap;html=1;" vertex="1" parent="WIyWlLk6GJQsqaUBKTNV-1">
          <mxGeometry x="590" y="1620" width="240" height="290" as="geometry" />
        </mxCell>
        <mxCell id="3bDkZ6XuROaeYBq_H3r6-30" value="&lt;div style=&quot;background-color: rgb(255, 255, 254); font-family: Consolas, &amp;quot;Courier New&amp;quot;, monospace; font-size: 14px; line-height: 19px; white-space: pre;&quot;&gt;&lt;div style=&quot;line-height: 19px;&quot;&gt;&lt;div style=&quot;line-height: 19px;&quot;&gt;&lt;div style=&quot;line-height: 19px;&quot;&gt;&lt;div&gt;&lt;span style=&quot;font-weight: bold;&quot;&gt;-&lt;/span&gt;ReportID&lt;/div&gt;&lt;div&gt;&lt;span style=&quot;font-weight: bold;&quot;&gt;-&lt;/span&gt;PatientID&lt;/div&gt;&lt;div&gt;&lt;span style=&quot;font-weight: bold;&quot;&gt;-&lt;/span&gt;DoctorID&lt;/div&gt;&lt;div&gt;&lt;span style=&quot;font-weight: bold;&quot;&gt;-&lt;/span&gt;TestName&lt;/div&gt;&lt;div&gt;&lt;span style=&quot;font-weight: bold;&quot;&gt;-&lt;/span&gt;TestDate&lt;/div&gt;&lt;div&gt;&lt;span style=&quot;font-weight: bold;&quot;&gt;-&lt;/span&gt;TestResults&lt;/div&gt;&lt;div&gt;&lt;span style=&quot;font-weight: bold;&quot;&gt;-&lt;/span&gt;AssociatedAppointmentID&lt;/div&gt;&lt;div&gt;&lt;span style=&quot;font-weight: bold;&quot;&gt;-&lt;/span&gt;TestStatus&lt;/div&gt;&lt;div&gt;&lt;span style=&quot;font-weight: bold;&quot;&gt;-&lt;/span&gt;LabTechnicianID&lt;/div&gt;&lt;div&gt;&lt;span style=&quot;font-weight: bold;&quot;&gt;-&lt;/span&gt;LabName&lt;/div&gt;&lt;hr&gt;&lt;div&gt;&lt;span style=&quot;font-weight: bold;&quot;&gt;+&lt;/span&gt;generateReport&lt;span style=&quot;font-weight: bold;&quot;&gt;()&lt;/span&gt;&lt;/div&gt;&lt;div&gt;&lt;span style=&quot;font-weight: bold;&quot;&gt;+&lt;/span&gt;viewReportDetails&lt;span style=&quot;font-weight: bold;&quot;&gt;()&lt;/span&gt;&lt;/div&gt;&lt;/div&gt;&lt;/div&gt;&lt;/div&gt;&lt;/div&gt;" style="text;strokeColor=none;fillColor=none;align=left;verticalAlign=top;spacingLeft=4;spacingRight=4;overflow=hidden;points=[[0,0.5],[1,0.5]];portConstraint=eastwest;rotatable=0;whiteSpace=wrap;html=1;" vertex="1" parent="3bDkZ6XuROaeYBq_H3r6-29">
          <mxGeometry y="30" width="240" height="260" as="geometry" />
        </mxCell>
      </root>
    </mxGraphModel>
  </diagram>
</mxfile>
